{
 "accessors": [
  {
   "componentType": 5126,
   "type": "VEC3",
   "count": 8100,
   "max": [
    1.0469399690628052,
    1.000920057296753,
    1.0482299327850342
   ],
   "min": [
    -1.0469399690628052,
    0.023386498913168907,
    -1.0484100580215454
   ],
   "bufferView": 0
  },
  {
   "componentType": 5126,
   "type": "VEC3",
   "count": 8100,
   "bufferView": 1
  },
  {
   "componentType": 5126,
   "type": "VEC2",
   "count": 8100,
   "bufferView": 2
  },
  {
   "componentType": 5126,
   "type": "VEC4",
   "count": 8100,
   "bufferView": 3
  },
  {
   "componentType": 5123,
   "type": "SCALAR",
   "count": 8100,
   "bufferView": 4
  },
  {
   "componentType": 5126,
   "type": "VEC3",
   "count": 4224,
   "max": [
    81.68560028076172,
    88.05020141601562,
    -67.24530029296875
   ],
   "min": [
    -30.249099731445312,
    58.294700622558594,
    -141.75799560546875
   ],
   "bufferView": 5
  },
  {
   "componentType": 5126,
   "type": "VEC3",
   "count": 4224,
   "bufferView": 6
  },
  {
   "componentType": 5126,
   "type": "VEC2",
   "count": 4224,
   "bufferView": 7
  },
  {
   "componentType": 5123,
   "type": "SCALAR",
   "count": 22848,
   "bufferView": 8
  },
  {
   "componentType": 5126,
   "type": "VEC3",
   "count": 444,
   "max": [
    0.12987089157104492,
    0.0035079901572316885,
    0.13002824783325195
   ],
   "min": [
    -0.12987089157104492,
    0.0029195700772106647,
    -0.13005569577217102
   ],
   "bufferView": 9
  },
  {
   "componentType": 5126,
   "type": "VEC3",
   "count": 444,
   "bufferView": 10
  },
  {
   "componentType": 5126,
   "type": "VEC2",
   "count": 444,
   "bufferView": 11
  },
  {
   "componentType": 5126,
   "type": "VEC4",
   "count": 444,
   "bufferView": 12
  },
  {
   "componentType": 5123,
   "type": "SCALAR",
   "count": 444,
   "bufferView": 13
  },
  {
   "componentType": 5126,
   "type": "VEC3",
   "count": 50,
   "max": [
    0.8620639443397522,
    8.492399763016661e-15,
    0.8631079792976379
   ],
   "min": [
    -0.8620639443397522,
    0,
    -0.8632910251617432
   ],
   "bufferView": 14
  },
  {
   "componentType": 5126,
   "type": "VEC3",
   "count": 50,
   "bufferView": 15
  },
  {
   "componentType": 5126,
   "type": "VEC2",
   "count": 50,
   "bufferView": 16
  },
  {
   "componentType": 5126,
   "type": "VEC4",
   "count": 50,
   "bufferView": 17
  },
  {
   "componentType": 5121,
   "type": "SCALAR",
   "count": 144,
   "bufferView": 18
  },
  {
   "componentType": 5126,
   "type": "VEC3",
   "count": 4224,
   "max": [
    30.244300842285156,
    88.05020141601562,
    141.75799560546875
   ],
   "min": [
    -81.69039916992188,
    58.2947998046875,
    67.24530029296875
   ],
   "bufferView": 19
  },
  {
   "componentType": 5126,
   "type": "VEC3",
   "count": 4224,
   "bufferView": 20
  },
  {
   "componentType": 5126,
   "type": "VEC2",
   "count": 4224,
   "bufferView": 21
  },
  {
   "componentType": 5123,
   "type": "SCALAR",
   "count": 22848,
   "bufferView": 22
  },
  {
   "componentType": 5126,
   "type": "VEC3",
   "count": 148,
   "max": [
    -0.5717480182647705,
    1.0974899530410767,
    -0.13666599988937378
   ],
   "min": [
    -0.6235520243644714,
    1.0698200464248657,
    -0.18716099858283997
   ],
   "bufferView": 23
  },
  {
   "componentType": 5126,
   "type": "VEC3",
   "count": 148,
   "bufferView": 24
  },
  {
   "componentType": 5126,
   "type": "VEC2",
   "count": 148,
   "bufferView": 25
  },
  {
   "componentType": 5121,
   "type": "SCALAR",
   "count": 864,
   "bufferView": 26
  },
  {
   "componentType": 5126,
   "type": "VEC3",
   "count": 6972,
   "max": [
    18.313100814819336,
    149.39599609375,
    52.394500732421875
   ],
   "min": [
    -18.313499450683594,
    110.65499877929688,
    -52.412899017333984
   ],
   "bufferView": 27
  },
  {
   "componentType": 5126,
   "type": "VEC3",
   "count": 6972,
   "bufferView": 28
  },
  {
   "componentType": 5126,
   "type": "VEC2",
   "count": 6972,
   "bufferView": 29
  },
  {
   "componentType": 5123,
   "type": "SCALAR",
   "count": 39936,
   "bufferView": 30
  },
  {
   "componentType": 5126,
   "type": "VEC3",
   "count": 704,
   "max": [
    101.86000061035156,
    115.58200073242188,
    101.98500061035156
   ],
   "min": [
    -101.86000061035156,
    97.81420135498047,
    -102.00399780273438
   ],
   "bufferView": 31
  },
  {
   "componentType": 5126,
   "type": "VEC3",
   "count": 704,
   "bufferView": 32
  },
  {
   "componentType": 5126,
   "type": "VEC2",
   "count": 704,
   "bufferView": 33
  },
  {
   "componentType": 5123,
   "type": "SCALAR",
   "count": 3600,
   "bufferView": 34
  },
  {
   "componentType": 5126,
   "type": "VEC3",
   "count": 1336,
   "max": [
    -90.37529754638672,
    81.02020263671875,
    -10.31719970703125
   ],
   "min": [
    -99.37100219726562,
    77.5551986694336,
    -40.543399810791016
   ],
   "bufferView": 35
  },
  {
   "componentType": 5126,
   "type": "VEC3",
   "count": 1336,
   "bufferView": 36
  },
  {
   "componentType": 5123,
   "type": "SCALAR",
   "count": 3504,
   "bufferView": 37
  },
  {
   "componentType": 5126,
   "type": "VEC3",
   "count": 839,
   "max": [
    102.79000091552734,
    97.28240203857422,
    102.91699981689453
   ],
   "min": [
    -102.79000091552734,
    0,
    -102.93499755859375
   ],
   "bufferView": 38
  },
  {
   "componentType": 5126,
   "type": "VEC3",
   "count": 839,
   "bufferView": 39
  },
  {
   "componentType": 5126,
   "type": "VEC2",
   "count": 839,
   "bufferView": 40
  },
  {
   "componentType": 5126,
   "type": "VEC4",
   "count": 839,
   "bufferView": 41
  },
  {
   "componentType": 5123,
   "type": "SCALAR",
   "count": 3900,
   "bufferView": 42
  }
 ],
 "asset": {
  "version": "2.0",
  "generator": "clara.io"
 },
 "bufferViews": [
  {
   "buffer": 0,
   "byteOffset": 0,
   "byteLength": 97200,
   "target": 34962,
   "byteStride": 12
  },
  {
   "buffer": 0,
   "byteOffset": 97200,
   "byteLength": 97200,
   "target": 34962,
   "byteStride": 12
  },
  {
   "buffer": 0,
   "byteOffset": 194400,
   "byteLength": 64800,
   "target": 34962,
   "byteStride": 8
  },
  {
   "buffer": 0,
   "byteOffset": 259200,
   "byteLength": 129600,
   "target": 34962,
   "byteStride": 16
  },
  {
   "buffer": 0,
   "byteOffset": 388800,
   "byteLength": 16200,
   "target": 34963
  },
  {
   "buffer": 0,
   "byteOffset": 405000,
   "byteLength": 50688,
   "target": 34962,
   "byteStride": 12
  },
  {
   "buffer": 0,
   "byteOffset": 455688,
   "byteLength": 50688,
   "target": 34962,
   "byteStride": 12
  },
  {
   "buffer": 0,
   "byteOffset": 506376,
   "byteLength": 33792,
   "target": 34962,
   "byteStride": 8
  },
  {
   "buffer": 0,
   "byteOffset": 540168,
   "byteLength": 45696,
   "target": 34963
  },
  {
   "buffer": 0,
   "byteOffset": 585864,
   "byteLength": 5328,
   "target": 34962,
   "byteStride": 12
  },
  {
   "buffer": 0,
   "byteOffset": 591192,
   "byteLength": 5328,
   "target": 34962,
   "byteStride": 12
  },
  {
   "buffer": 0,
   "byteOffset": 596520,
   "byteLength": 3552,
   "target": 34962,
   "byteStride": 8
  },
  {
   "buffer": 0,
   "byteOffset": 600072,
   "byteLength": 7104,
   "target": 34962,
   "byteStride": 16
  },
  {
   "buffer": 0,
   "byteOffset": 607176,
   "byteLength": 888,
   "target": 34963
  },
  {
   "buffer": 0,
   "byteOffset": 608064,
   "byteLength": 600,
   "target": 34962,
   "byteStride": 12
  },
  {
   "buffer": 0,
   "byteOffset": 608664,
   "byteLength": 600,
   "target": 34962,
   "byteStride": 12
  },
  {
   "buffer": 0,
   "byteOffset": 609264,
   "byteLength": 400,
   "target": 34962,
   "byteStride": 8
  },
  {
   "buffer": 0,
   "byteOffset": 609664,
   "byteLength": 800,
   "target": 34962,
   "byteStride": 16
  },
  {
   "buffer": 0,
   "byteOffset": 610464,
   "byteLength": 144,
   "target": 34963
  },
  {
   "buffer": 0,
   "byteOffset": 610608,
   "byteLength": 50688,
   "target": 34962,
   "byteStride": 12
  },
  {
   "buffer": 0,
   "byteOffset": 661296,
   "byteLength": 50688,
   "target": 34962,
   "byteStride": 12
  },
  {
   "buffer": 0,
   "byteOffset": 711984,
   "byteLength": 33792,
   "target": 34962,
   "byteStride": 8
  },
  {
   "buffer": 0,
   "byteOffset": 745776,
   "byteLength": 45696,
   "target": 34963
  },
  {
   "buffer": 0,
   "byteOffset": 791472,
   "byteLength": 1776,
   "target": 34962,
   "byteStride": 12
  },
  {
   "buffer": 0,
   "byteOffset": 793248,
   "byteLength": 1776,
   "target": 34962,
   "byteStride": 12
  },
  {
   "buffer": 0,
   "byteOffset": 795024,
   "byteLength": 1184,
   "target": 34962,
   "byteStride": 8
  },
  {
   "buffer": 0,
   "byteOffset": 796208,
   "byteLength": 864,
   "target": 34963
  },
  {
   "buffer": 0,
   "byteOffset": 797072,
   "byteLength": 83664,
   "target": 34962,
   "byteStride": 12
  },
  {
   "buffer": 0,
   "byteOffset": 880736,
   "byteLength": 83664,
   "target": 34962,
   "byteStride": 12
  },
  {
   "buffer": 0,
   "byteOffset": 964400,
   "byteLength": 55776,
   "target": 34962,
   "byteStride": 8
  },
  {
   "buffer": 0,
   "byteOffset": 1020176,
   "byteLength": 79872,
   "target": 34963
  },
  {
   "buffer": 0,
   "byteOffset": 1100048,
   "byteLength": 8448,
   "target": 34962,
   "byteStride": 12
  },
  {
   "buffer": 0,
   "byteOffset": 1108496,
   "byteLength": 8448,
   "target": 34962,
   "byteStride": 12
  },
  {
   "buffer": 0,
   "byteOffset": 1116944,
   "byteLength": 5632,
   "target": 34962,
   "byteStride": 8
  },
  {
   "buffer": 0,
   "byteOffset": 1122576,
   "byteLength": 7200,
   "target": 34963
  },
  {
   "buffer": 0,
   "byteOffset": 1129776,
   "byteLength": 16032,
   "target": 34962,
   "byteStride": 12
  },
  {
   "buffer": 0,
   "byteOffset": 1145808,
   "byteLength": 16032,
   "target": 34962,
   "byteStride": 12
  },
  {
   "buffer": 0,
   "byteOffset": 1161840,
   "byteLength": 7008,
   "target": 34963
  },
  {
   "buffer": 0,
   "byteOffset": 1168848,
   "byteLength": 10068,
   "target": 34962,
   "byteStride": 12
  },
  {
   "buffer": 0,
   "byteOffset": 1178916,
   "byteLength": 10068,
   "target": 34962,
   "byteStride": 12
  },
  {
   "buffer": 0,
   "byteOffset": 1188984,
   "byteLength": 6712,
   "target": 34962,
   "byteStride": 8
  },
  {
   "buffer": 0,
   "byteOffset": 1195696,
   "byteLength": 13424,
   "target": 34962,
   "byteStride": 16
  },
  {
   "buffer": 0,
   "byteOffset": 1209120,
   "byteLength": 7800,
   "target": 34963
  }
 ],
 "buffers": [
  {
   "byteLength": 1216920,
   "uri": "data:application/octet-stream;base64,"
  }
 ],
 "materials": [
  {
   "name": "Glass",
   "pbrMetallicRoughness": {
    "baseColorFactor": [
     1,
     1,
     1,
     0.1
    ],
    "roughnessFactor": 0.05
   },
   "alphaMode": "BLEND"
  },
  {
   "name": "PotInside",
   "pbrMetallicRoughness": {
    "baseColorFactor": [
     0.08627450980392157,
     0.08627450980392157,
     0.08627450980392157,
     1
    ],
    "roughnessFactor": 0.21,
    "metallicFactor": 0.88
   },
   "doubleSided": true
  },
  {
   "name": "PotBottom",
   "pbrMetallicRoughness": {
    "baseColorFactor": [
     0.17647058823529413,
     0.17647058823529413,
     0.17647058823529413,
     1
    ],
    "roughnessFactor": 0.32
   },
   "doubleSided": true
  },
  {
   "name": "MetalChrome",
   "pbrMetallicRoughness": {
    "baseColorFactor": [
     0.32941176470588235,
     0.32941176470588235,
     0.32941176470588235,
     1
    ],
    "roughnessFactor": 0.39,
    "metallicFactor": 0.76
   },
   "doubleSided": true
  },
  {
   "name": "PotInsideDark",
   "pbrMetallicRoughness": {
    "baseColorFactor": [
     0.6666666666666666,
     0.6666666666666666,
     0.6666666666666666,
     1
    ],
    "roughnessFactor": 0.32
   }
  },
  {
   "name": "PotInsideDark",
   "pbrMetallicRoughness": {
    "baseColorFactor": [
     0.6666666666666666,
     0.6666666666666666,
     0.6666666666666666,
     1
    ],
    "roughnessFactor": 0.32
   },
   "doubleSided": true
  }
 ],
 "meshes": [
  {
   "primitives": [
    {
     "indices": 4,
     "material": 5,
     "mode": 4,
     "attributes": {
      "POSITION": 0,
      "NORMAL": 1,
      "TEXCOORD_0": 2,
      "TANGENT": 3
     }
    }
   ]
  },
  {
   "primitives": [
    {
     "indices": 8,
     "material": 3,
     "mode": 4,
     "attributes": {
      "POSITION": 5,
      "NORMAL": 6,
      "TEXCOORD_0": 7
     }
    }
   ]
  },
  {
   "primitives": [
    {
     "indices": 13,
     "material": 2,
     "mode": 4,
     "attributes": {
      "POSITION": 9,
      "NORMAL": 10,
      "TEXCOORD_0": 11,
      "TANGENT": 12
     }
    }
   ]
  },
  {
   "primitives": [
    {
     "indices": 18,
     "material": 2,
     "mode": 4,
     "attributes": {
      "POSITION": 14,
      "NORMAL": 15,
      "TEXCOORD_0": 16,
      "TANGENT": 17
     }
    }
   ]
  },
  {
   "primitives": [
    {
     "indices": 22,
     "material": 3,
     "mode": 4,
     "attributes": {
      "POSITION": 19,
      "NORMAL": 20,
      "TEXCOORD_0": 21
     }
    }
   ]
  },
  {
   "primitives": [
    {
     "indices": 26,
     "material": 3,
     "mode": 4,
     "attributes": {
      "POSITION": 23,
      "NORMAL": 24,
      "TEXCOORD_0": 25
     }
    }
   ]
  },
  {
   "primitives": [
    {
     "indices": 30,
     "material": 3,
     "mode": 4,
     "attributes": {
      "POSITION": 27,
      "NORMAL": 28,
      "TEXCOORD_0": 29
     }
    }
   ]
  },
  {
   "primitives": [
    {
     "indices": 34,
     "material": 0,
     "mode": 4,
     "attributes": {
      "POSITION": 31,
      "NORMAL": 32,
      "TEXCOORD_0": 33
     }
    }
   ]
  },
  {
   "primitives": [
    {
     "indices": 37,
     "material": 1,
     "mode": 4,
     "attributes": {
      "POSITION": 35,
      "NORMAL": 36
     }
    }
   ]
  },
  {
   "primitives": [
    {
     "indices": 42,
     "material": 4,
     "mode": 4,
     "attributes": {
      "POSITION": 38,
      "NORMAL": 39,
      "TEXCOORD_0": 40,
      "TANGENT": 41
     }
    }
   ]
  }
 ],
 "nodes": [
  {
   "name": "group2",
   "scale": [
    0.15000000596046448,
    0.15000000596046448,
    0.15000000596046448
   ],
   "children": [
    1,
    2,
    4,
    5,
    7
   ]
  },
  {
   "name": "group",
   "scale": [
    0.009999999776482582,
    0.009999999776482582,
    0.009999999776482582
   ],
   "children": [
    3,
    6,
    8,
    9,
    10,
    11
   ]
  },
  {
   "name": "PotInside",
   "mesh": 0
  },
  {
   "name": "PotHandleLeft",
   "mesh": 1
  },
  {
   "name": "PotInsideBottom",
   "scale": [
    6.666666507720947,
    6.666666507720947,
    6.666666507720947
   ],
   "mesh": 2
  },
  {
   "name": "PotBottom",
   "mesh": 3
  },
  {
   "name": "PotHandleRight",
   "mesh": 4
  },
  {
   "name": "LidValve",
   "mesh": 5
  },
  {
   "name": "LidHandle",
   "mesh": 6
  },
  {
   "name": "Lid",
   "mesh": 7
  },
  {
   "name": "PotLogo",
   "mesh": 8
  },
  {
   "name": "Pot",
   "translation": [
    0,
    0.000699999975040555,
    0
   ],
   "mesh": 9
  }
 ],
 "scene": 0,
 "scenes": [
  {
   "nodes": [
    0
   ]
  }
 ]
}