{
 "accessors": [
  {
   "componentType": 5126,
   "type": "VEC3",
   "count": 2288,
   "max": [
    27.847057342529297,
    24.41502571105957,
    15.53486442565918
   ],
   "min": [
    -21.570741653442383,
    0.010424583218991756,
    -14.686746597290039
   ],
   "bufferView": 0
  },
  {
   "componentType": 5126,
   "type": "VEC3",
   "count": 2288,
   "bufferView": 1
  },
  {
   "componentType": 5126,
   "type": "VEC2",
   "count": 2288,
   "bufferView": 2
  },
  {
   "componentType": 5123,
   "type": "SCALAR",
   "count": 12096,
   "bufferView": 3
  }
 ],
 "asset": {
  "version": "2.0",
  "generator": "clara.io"
 },
 "bufferViews": [
  {
   "buffer": 0,
   "byteOffset": 0,
   "byteLength": 27456,
   "target": 34962,
   "byteStride": 12
  },
  {
   "buffer": 0,
   "byteOffset": 27456,
   "byteLength": 27456,
   "target": 34962,
   "byteStride": 12
  },
  {
   "buffer": 0,
   "byteOffset": 54912,
   "byteLength": 18304,
   "target": 34962,
   "byteStride": 8
  },
  {
   "buffer": 0,
   "byteOffset": 73216,
   "byteLength": 24192,
   "target": 34963
  }
 ],
 "buffers": [
  {
   "byteLength": 97408,
   "uri": "data:application/octet-stream;base64,"
  }
 ],
 "materials": [
  {
   "name": "Clear Coat Plastic",
   "pbrMetallicRoughness": {
    "baseColorFactor": [
     0.7275749533893856,
     0.7275749533893856,
     0.7275749533893856,
     1
    ],
    "roughnessFactor": 0.0981,
    "metallicFactor": 0
   }
  }
 ],
 "meshes": [
  {
   "primitives": [
    {
     "indices": 3,
     "material": 0,
     "mode": 4,
     "attributes": {
      "POSITION": 0,
      "NORMAL": 1,
      "TEXCOORD_0": 2
     }
    }
   ]
  }
 ],
 "nodes": [
  {
   "name": "Utah Teapot Quads",
   "translation": [
    -1.5255000591278076,
    -9.33899974822998,
    -0.43650001287460327
   ],
   "mesh": 0
  }
 ],
 "scene": 0,
 "scenes": [
  {
   "nodes": [
    0
   ]
  }
 ]
}